# xmcd
#
# Track frame offsets: 
#        150
#        17658
#        33575
#        48144
#
# Disc length: 872 seconds
#
# Revision: 0
# Processed by: cddbd v1.5.2PL0 Copyright (c) Steve Scherf et al.
# Submitted via: ExactAudioCopyFreeDBPlugin 1.0
#
DISCID=26036604
DTITLE=Ian Noe - Off This Mountaintop
DYEAR=2017
DGENRE=Country
TTITLE0=Irene
TTITLE1=Off This Mountaintop
TTITLE2=A young Felon Dates An Old Woman
TTITLE3=Methhead
EXTD=
EXTT0=
EXTT1=
EXTT2=
EXTT3=
PLAYORDER=
